<mxfile host="app.diagrams.net" modified="2023-10-10T23:47:51.368Z" agent="Mozilla/5.0 (Windows NT 10.0; Win64; x64) AppleWebKit/537.36 (KHTML, like Gecko) Chrome/117.0.0.0 Safari/537.36" etag="uXwzZQl-Bh3N9-045_Es" version="22.0.4" type="google">
  <diagram name="Page-1" id="4dWl3C3BqsDxm5pRTNil">
    <mxGraphModel grid="1" page="1" gridSize="10" guides="1" tooltips="1" connect="1" arrows="1" fold="1" pageScale="1" pageWidth="850" pageHeight="1100" math="0" shadow="0">
      <root>
        <mxCell id="0" />
        <mxCell id="1" parent="0" />
        <mxCell id="tPHH5LvpKrj1Zh-4ouin-3" value="" style="whiteSpace=wrap;html=1;aspect=fixed;" vertex="1" parent="1">
          <mxGeometry x="140" y="190" width="500" height="500" as="geometry" />
        </mxCell>
        <mxCell id="tL1exYCS6HXLUD747vFQ-3" style="edgeStyle=orthogonalEdgeStyle;rounded=0;orthogonalLoop=1;jettySize=auto;html=1;exitX=1;exitY=0.5;exitDx=0;exitDy=0;entryX=0;entryY=0.25;entryDx=0;entryDy=0;" edge="1" parent="1" source="tPHH5LvpKrj1Zh-4ouin-5" target="tPHH5LvpKrj1Zh-4ouin-16">
          <mxGeometry relative="1" as="geometry" />
        </mxCell>
        <mxCell id="tL1exYCS6HXLUD747vFQ-16" style="edgeStyle=orthogonalEdgeStyle;rounded=0;orthogonalLoop=1;jettySize=auto;html=1;exitX=1;exitY=1;exitDx=0;exitDy=0;entryX=0;entryY=1;entryDx=0;entryDy=0;" edge="1" parent="1" source="tPHH5LvpKrj1Zh-4ouin-5" target="tL1exYCS6HXLUD747vFQ-13">
          <mxGeometry relative="1" as="geometry">
            <Array as="points">
              <mxPoint x="254" y="360" />
              <mxPoint x="465" y="360" />
            </Array>
          </mxGeometry>
        </mxCell>
        <mxCell id="tPHH5LvpKrj1Zh-4ouin-5" value="price Tracking reasoning" style="ellipse;whiteSpace=wrap;html=1;" vertex="1" parent="1">
          <mxGeometry x="160" y="380" width="110" height="30" as="geometry" />
        </mxCell>
        <mxCell id="tPHH5LvpKrj1Zh-4ouin-19" style="edgeStyle=orthogonalEdgeStyle;rounded=0;orthogonalLoop=1;jettySize=auto;html=1;exitX=1;exitY=0.5;exitDx=0;exitDy=0;" edge="1" parent="1" source="tPHH5LvpKrj1Zh-4ouin-6" target="tPHH5LvpKrj1Zh-4ouin-16">
          <mxGeometry relative="1" as="geometry" />
        </mxCell>
        <mxCell id="tL1exYCS6HXLUD747vFQ-14" style="edgeStyle=orthogonalEdgeStyle;rounded=0;orthogonalLoop=1;jettySize=auto;html=1;exitX=1;exitY=0;exitDx=0;exitDy=0;entryX=0;entryY=0.5;entryDx=0;entryDy=0;" edge="1" parent="1" source="tPHH5LvpKrj1Zh-4ouin-6" target="tL1exYCS6HXLUD747vFQ-13">
          <mxGeometry relative="1" as="geometry" />
        </mxCell>
        <mxCell id="tPHH5LvpKrj1Zh-4ouin-6" value="&lt;span id=&quot;docs-internal-guid-4dfa3878-7fff-13ff-aa03-118f765a006c&quot;&gt;&lt;/span&gt;Price Tracking history" style="ellipse;whiteSpace=wrap;html=1;" vertex="1" parent="1">
          <mxGeometry x="155" y="300" width="130" height="30" as="geometry" />
        </mxCell>
        <mxCell id="tL1exYCS6HXLUD747vFQ-2" style="edgeStyle=orthogonalEdgeStyle;rounded=0;orthogonalLoop=1;jettySize=auto;html=1;exitX=1;exitY=0.5;exitDx=0;exitDy=0;entryX=0;entryY=0.75;entryDx=0;entryDy=0;" edge="1" parent="1" source="tPHH5LvpKrj1Zh-4ouin-8" target="tPHH5LvpKrj1Zh-4ouin-16">
          <mxGeometry relative="1" as="geometry" />
        </mxCell>
        <mxCell id="tL1exYCS6HXLUD747vFQ-17" style="edgeStyle=orthogonalEdgeStyle;rounded=0;orthogonalLoop=1;jettySize=auto;html=1;exitX=1;exitY=0;exitDx=0;exitDy=0;entryX=0;entryY=0;entryDx=0;entryDy=0;" edge="1" parent="1" source="tPHH5LvpKrj1Zh-4ouin-8" target="tL1exYCS6HXLUD747vFQ-13">
          <mxGeometry relative="1" as="geometry">
            <Array as="points">
              <mxPoint x="254" y="460" />
              <mxPoint x="465" y="460" />
            </Array>
          </mxGeometry>
        </mxCell>
        <mxCell id="tPHH5LvpKrj1Zh-4ouin-8" value="Shopping Budget" style="ellipse;whiteSpace=wrap;html=1;" vertex="1" parent="1">
          <mxGeometry x="160" y="470" width="110" height="30" as="geometry" />
        </mxCell>
        <mxCell id="tL1exYCS6HXLUD747vFQ-1" style="edgeStyle=orthogonalEdgeStyle;rounded=0;orthogonalLoop=1;jettySize=auto;html=1;exitX=1;exitY=0.5;exitDx=0;exitDy=0;entryX=0.5;entryY=1;entryDx=0;entryDy=0;" edge="1" parent="1" source="tPHH5LvpKrj1Zh-4ouin-9" target="tPHH5LvpKrj1Zh-4ouin-16">
          <mxGeometry relative="1" as="geometry" />
        </mxCell>
        <mxCell id="tL1exYCS6HXLUD747vFQ-28" style="edgeStyle=orthogonalEdgeStyle;rounded=0;orthogonalLoop=1;jettySize=auto;html=1;exitX=0.5;exitY=0;exitDx=0;exitDy=0;entryX=0.5;entryY=1;entryDx=0;entryDy=0;" edge="1" parent="1" source="tPHH5LvpKrj1Zh-4ouin-9" target="tL1exYCS6HXLUD747vFQ-13">
          <mxGeometry relative="1" as="geometry">
            <Array as="points">
              <mxPoint x="205" y="560" />
              <mxPoint x="515" y="560" />
            </Array>
          </mxGeometry>
        </mxCell>
        <mxCell id="tPHH5LvpKrj1Zh-4ouin-9" value="Budget history" style="ellipse;whiteSpace=wrap;html=1;" vertex="1" parent="1">
          <mxGeometry x="150" y="590" width="110" height="30" as="geometry" />
        </mxCell>
        <mxCell id="tPHH5LvpKrj1Zh-4ouin-16" value="Primary Actor:&lt;br&gt;Shopper" style="rounded=0;whiteSpace=wrap;html=1;" vertex="1" parent="1">
          <mxGeometry x="520" y="427" width="100" height="63" as="geometry" />
        </mxCell>
        <mxCell id="tL1exYCS6HXLUD747vFQ-4" value="&amp;lt;&amp;lt;Include&amp;gt;&amp;gt;" style="text;strokeColor=none;fillColor=none;align=left;verticalAlign=top;spacingLeft=4;spacingRight=4;overflow=hidden;rotatable=0;points=[[0,0.5],[1,0.5]];portConstraint=eastwest;whiteSpace=wrap;html=1;" vertex="1" parent="1">
          <mxGeometry x="270" y="280" width="100" height="26" as="geometry" />
        </mxCell>
        <mxCell id="tL1exYCS6HXLUD747vFQ-5" value="&amp;lt;&amp;lt;Include&amp;gt;&amp;gt;" style="text;strokeColor=none;fillColor=none;align=left;verticalAlign=top;spacingLeft=4;spacingRight=4;overflow=hidden;rotatable=0;points=[[0,0.5],[1,0.5]];portConstraint=eastwest;whiteSpace=wrap;html=1;" vertex="1" parent="1">
          <mxGeometry x="300" y="330" width="100" height="26" as="geometry" />
        </mxCell>
        <mxCell id="tL1exYCS6HXLUD747vFQ-7" value="&amp;lt;&amp;lt;Include&amp;gt;&amp;gt;" style="text;strokeColor=none;fillColor=none;align=left;verticalAlign=top;spacingLeft=4;spacingRight=4;overflow=hidden;rotatable=0;points=[[0,0.5],[1,0.5]];portConstraint=eastwest;whiteSpace=wrap;html=1;" vertex="1" parent="1">
          <mxGeometry x="260" y="427" width="100" height="26" as="geometry" />
        </mxCell>
        <mxCell id="tL1exYCS6HXLUD747vFQ-13" value="Registered&lt;br&gt;Active&amp;nbsp;&lt;br&gt;account&lt;br&gt;" style="ellipse;whiteSpace=wrap;html=1;" vertex="1" parent="1">
          <mxGeometry x="445" y="250" width="140" height="55" as="geometry" />
        </mxCell>
        <mxCell id="tL1exYCS6HXLUD747vFQ-20" value="Budget per month" style="ellipse;whiteSpace=wrap;html=1;" vertex="1" parent="1">
          <mxGeometry x="490" y="630" width="130" height="50" as="geometry" />
        </mxCell>
        <mxCell id="tL1exYCS6HXLUD747vFQ-23" value="Use Case Diagram" style="rounded=0;whiteSpace=wrap;html=1;" vertex="1" parent="1">
          <mxGeometry x="310" y="190" width="150" height="40" as="geometry" />
        </mxCell>
        <mxCell id="tL1exYCS6HXLUD747vFQ-24" style="edgeStyle=orthogonalEdgeStyle;rounded=0;orthogonalLoop=1;jettySize=auto;html=1;exitX=0.764;exitY=0.911;exitDx=0;exitDy=0;entryX=0.077;entryY=0.613;entryDx=0;entryDy=0;entryPerimeter=0;exitPerimeter=0;" edge="1" parent="1" source="tPHH5LvpKrj1Zh-4ouin-9" target="tL1exYCS6HXLUD747vFQ-20">
          <mxGeometry relative="1" as="geometry">
            <Array as="points">
              <mxPoint x="234" y="670" />
              <mxPoint x="500" y="670" />
            </Array>
          </mxGeometry>
        </mxCell>
        <mxCell id="tL1exYCS6HXLUD747vFQ-29" value="&amp;lt;&amp;lt;Include&amp;gt;&amp;gt;" style="text;strokeColor=none;fillColor=none;align=left;verticalAlign=top;spacingLeft=4;spacingRight=4;overflow=hidden;rotatable=0;points=[[0,0.5],[1,0.5]];portConstraint=eastwest;whiteSpace=wrap;html=1;" vertex="1" parent="1">
          <mxGeometry x="270" y="530" width="100" height="26" as="geometry" />
        </mxCell>
        <mxCell id="tL1exYCS6HXLUD747vFQ-30" value="&amp;lt;&amp;lt;Include&amp;gt;&amp;gt;" style="text;strokeColor=none;fillColor=none;align=left;verticalAlign=top;spacingLeft=4;spacingRight=4;overflow=hidden;rotatable=0;points=[[0,0.5],[1,0.5]];portConstraint=eastwest;whiteSpace=wrap;html=1;" vertex="1" parent="1">
          <mxGeometry x="280" y="630" width="100" height="26" as="geometry" />
        </mxCell>
        <mxCell id="tL1exYCS6HXLUD747vFQ-32" style="edgeStyle=orthogonalEdgeStyle;rounded=0;orthogonalLoop=1;jettySize=auto;html=1;exitX=0.5;exitY=1;exitDx=0;exitDy=0;" edge="1" parent="1" source="tL1exYCS6HXLUD747vFQ-23" target="tL1exYCS6HXLUD747vFQ-23">
          <mxGeometry relative="1" as="geometry" />
        </mxCell>
      </root>
    </mxGraphModel>
  </diagram>
</mxfile>
